HIERARCHY
ROOT joint_Root
{
	OFFSET 0.0 0.0 0.0
	CHANNELS 6 Xposition Yposition Zposition Zrotation Xrotation Yrotation 
	JOINT Hips
	{
		OFFSET -0.726466 93.3139 -2.00062
		CHANNELS 6 Xposition Yposition Zposition Zrotation Xrotation Yrotation 
		JOINT Spine
		{
			OFFSET 15.7357 0.0 0.0
			CHANNELS 6 Xposition Yposition Zposition Zrotation Xrotation Yrotation 
			JOINT Chest
			{
				OFFSET 8.98455 -0.406207 0.0
				CHANNELS 6 Xposition Yposition Zposition Zrotation Xrotation Yrotation 
				JOINT Neck
				{
					OFFSET 16.3773 0.0 0.0
					CHANNELS 6 Xposition Yposition Zposition Zrotation Xrotation Yrotation 
					JOINT Head
					{
						OFFSET 6.45672 0.0 0.0
						CHANNELS 6 Xposition Yposition Zposition Zrotation Xrotation Yrotation 
						End Site
						{
							OFFSET 0.0 0.0 0.0
						}
					}
				}
				JOINT Shoulder_L
				{
					OFFSET 12.9942 -0.242716 4.98039
					CHANNELS 6 Xposition Yposition Zposition Zrotation Xrotation Yrotation 
					JOINT UpperArm_L
					{
						OFFSET 5.34809 0.0 0.0
						CHANNELS 6 Xposition Yposition Zposition Zrotation Xrotation Yrotation 
						JOINT LowerArm_L
						{
							OFFSET 24.3286 1.87007e-05 0.0
							CHANNELS 6 Xposition Yposition Zposition Zrotation Xrotation Yrotation 
							JOINT Hand_L
							{
								OFFSET 22.2916 0.0 0.0
								CHANNELS 6 Xposition Yposition Zposition Zrotation Xrotation Yrotation 
								End Site
								{
									OFFSET 0.0 0.0 0.0
								}
							}
						}
					}
				}
				JOINT Shoulder_R
				{
					OFFSET 12.9945 -0.242716 -4.98039
					CHANNELS 6 Xposition Yposition Zposition Zrotation Xrotation Yrotation 
					JOINT UpperArm_R
					{
						OFFSET -5.34813 0.0 0.0
						CHANNELS 6 Xposition Yposition Zposition Zrotation Xrotation Yrotation 
						JOINT LowerArm_R
						{
							OFFSET -24.3289 0.000322201 0.0
							CHANNELS 6 Xposition Yposition Zposition Zrotation Xrotation Yrotation 
							JOINT Hand_R
							{
								OFFSET -22.2915 -0.000108084 0.0
								CHANNELS 6 Xposition Yposition Zposition Zrotation Xrotation Yrotation 
								End Site
								{
									OFFSET 0.0 0.0 0.0
								}
							}
						}
					}
				}
			}
		}
		JOINT UpperLeg_L
		{
			OFFSET -2.19248 -6.46944 0.0
			CHANNELS 6 Xposition Yposition Zposition Zrotation Xrotation Yrotation 
			JOINT LowerLeg_L
			{
				OFFSET 39.0811 0.0 -1.23785e-05
				CHANNELS 6 Xposition Yposition Zposition Zrotation Xrotation Yrotation 
				JOINT Foot_L
				{
					OFFSET 40.9854 0.0 -1.26872e-05
					CHANNELS 6 Xposition Yposition Zposition Zrotation Xrotation Yrotation 
					JOINT Toes_L
					{
						OFFSET 11.7543 0.0 0.0
						CHANNELS 6 Xposition Yposition Zposition Zrotation Xrotation Yrotation 
						End Site
						{
							OFFSET 0.0 0.0 0.0
						}
					}
				}
			}
		}
		JOINT UpperLeg_R
		{
			OFFSET -2.19251 6.46944 0.0
			CHANNELS 6 Xposition Yposition Zposition Zrotation Xrotation Yrotation 
			JOINT LowerLeg_R
			{
				OFFSET -39.0811 -0.00228153 -0.0401928
				CHANNELS 6 Xposition Yposition Zposition Zrotation Xrotation Yrotation 
				JOINT Foot_R
				{
					OFFSET -40.9854 0.0 0.0
					CHANNELS 6 Xposition Yposition Zposition Zrotation Xrotation Yrotation 
					JOINT Toes_R
					{
						OFFSET -11.7543 0.0 0.0
						CHANNELS 6 Xposition Yposition Zposition Zrotation Xrotation Yrotation 
						End Site
						{
							OFFSET 0.0 0.0 0.0
						}
					}
				}
			}
		}
	}
}
MOTION
Frames:	9
Frame Time:	0.0333333
0.000000 0.000000 0.000000 0.000000 0.000000 -0.000000 -2.864090 80.910400 -5.221080 83.883900 1.160090 -3.984540 15.735700 0.000005 -0.000001 85.924100 78.506400 -82.156100 8.984550 -0.406207 -0.000000 15.223000 -1.367070 7.725020 16.377300 -0.000001 -0.000001 1.830580 -2.037240 -1.154340 6.456720 -0.000001 -0.000000 -6.020870 0.763262 -5.096060 12.994200 -0.242716 4.980390 -88.639800 -3.721610 -69.905700 5.348090 -0.000007 -0.000001 -62.855100 29.047600 -1.633420 24.328600 0.000019 0.000005 -9.774480 -7.029250 -54.604900 22.291600 -0.000001 0.000005 -0.963381 5.614250 -12.223300 12.994500 -0.242716 -4.980390 88.607800 3.178800 -66.334300 -5.348130 -0.000001 -0.000004 -39.178600 21.559100 -28.484300 -24.328900 0.000322 -0.000009 -5.687020 -2.646630 -65.119900 -22.291500 -0.000108 -0.000004 2.347850 5.603450 -11.550600 -2.192480 -6.469440 -0.000000 -172.131000 -7.234050 -23.677600 39.081100 -0.000007 -0.000012 -0.139355 -0.062073 114.014000 40.985400 -0.000006 -0.000013 11.406100 -7.142450 -38.899900 11.754300 -0.000000 0.000003 -0.006630 -0.076467 -19.689400 -2.192510 6.469440 -0.000001 -170.597000 9.673750 149.849000 -39.081100 -0.002282 -0.040193 0.193683 -0.091911 64.245400 -40.985400 0.000008 0.000006 6.970410 -5.425780 -86.466300 -11.754300 -0.000006 -0.000006 -0.647002 -0.787184 -18.564000
0.000000 0.000000 0.000000 0.000000 0.000000 -0.000000 -2.471610 81.046500 4.134380 86.016400 -0.876007 -5.099900 15.735700 0.000005 -0.000001 93.111700 79.176500 -90.419000 8.984550 -0.406207 -0.000000 13.826300 1.303960 5.229010 16.377300 -0.000001 -0.000001 2.453420 -2.359560 0.032585 6.456720 -0.000001 -0.000000 -5.273570 -1.510340 -5.308060 12.994200 -0.242716 4.980390 -88.548300 -3.679320 -68.450400 5.348090 -0.000007 -0.000001 -65.057500 28.428900 3.820660 24.328600 0.000019 0.000005 -6.237360 -4.437440 -54.705800 22.291600 -0.000001 0.000005 -3.081020 5.613600 -12.192000 12.994500 -0.242716 -4.980390 89.177900 1.903050 -66.632800 -5.348130 -0.000001 -0.000004 -37.687000 18.056100 -33.212400 -24.328900 0.000322 -0.000009 -5.691740 -2.200360 -68.927700 -22.291500 -0.000108 -0.000004 3.118570 5.599740 -11.328300 -2.192480 -6.469440 -0.000000 -178.082000 -9.498210 -35.363400 39.081100 -0.000007 -0.000012 -0.325885 -0.169977 117.548000 40.985400 -0.000006 -0.000013 12.828700 -10.031900 -43.908400 11.754300 -0.000000 0.000003 -0.006674 -0.076845 -19.704800 -2.192510 6.469440 -0.000001 -174.818000 10.101700 157.969000 -39.081100 -0.002282 -0.040193 0.146298 -0.078976 61.106900 -40.985400 0.000008 0.000006 6.211770 -2.771770 -90.157300 -11.754300 -0.000006 -0.000006 -1.368600 -1.587060 -20.330700
0.000000 0.000000 0.000000 0.000000 0.000000 -0.000000 -1.619520 83.100600 14.360300 89.021000 -3.491820 -6.594720 15.735700 0.000005 -0.000001 100.966000 79.748600 -99.821000 8.984550 -0.406207 -0.000000 12.344800 3.909850 1.866740 16.377300 -0.000001 -0.000001 2.965070 -2.580630 0.668101 6.456720 -0.000001 -0.000000 -4.875590 -3.282270 -4.317380 12.994200 -0.242716 4.980390 -88.518900 -3.484870 -66.956700 5.348090 -0.000007 -0.000001 -66.581700 27.287600 9.264940 24.328600 0.000019 0.000005 -8.847080 -5.745190 -57.251100 22.291600 -0.000001 0.000005 -3.505950 5.612730 -12.134100 12.994500 -0.242716 -4.980390 89.581500 0.972549 -66.715900 -5.348130 -0.000001 -0.000004 -36.282400 16.299100 -35.753000 -24.328900 0.000322 -0.000009 -5.449480 -1.770530 -72.049400 -22.291500 -0.000108 -0.000004 4.246860 5.599060 -11.286000 -2.192480 -6.469440 -0.000000 175.244000 -10.223100 -43.228500 39.081100 -0.000007 -0.000012 -0.317752 -0.124301 111.366000 40.985400 -0.000006 -0.000013 11.471600 -11.023300 -50.226500 11.754300 -0.000000 0.000003 -0.006656 -0.076691 -19.698600 -2.192510 6.469440 -0.000001 179.303000 9.105870 167.373000 -39.081100 -0.002282 -0.040193 0.059706 -0.043135 52.625100 -40.985400 0.000008 0.000006 5.953140 0.667314 -84.451500 -11.754300 -0.000006 -0.000006 -0.115700 -0.305701 -26.216100
0.000000 0.000000 0.000000 0.000000 0.000000 -0.000000 -0.849973 86.395000 24.861900 91.239800 -5.115960 -7.792260 15.735700 0.000005 -0.000001 105.611000 80.252600 -105.838000 8.984550 -0.406207 -0.000000 11.053300 5.200460 -0.956532 16.377300 -0.000001 -0.000001 3.601060 -2.230060 1.224130 6.456720 -0.000001 -0.000000 -4.452200 -4.537620 -3.396940 12.994200 -0.242716 4.980390 -88.125900 -4.100220 -65.410300 5.348090 -0.000007 -0.000001 -68.513800 24.775900 14.046300 24.328600 0.000019 0.000005 -9.021950 -5.707490 -57.939100 22.291600 -0.000001 0.000005 -3.427310 5.611270 -12.040200 12.994500 -0.242716 -4.980390 89.884100 0.274466 -67.120900 -5.348130 -0.000001 -0.000004 -36.491300 16.688600 -36.655400 -24.328900 0.000322 -0.000009 -5.460050 -1.608470 -73.630100 -22.291500 -0.000108 -0.000004 3.741620 5.594910 -11.038200 -2.192480 -6.469440 -0.000000 171.280000 -8.985240 -46.923600 39.081100 -0.000007 -0.000012 -0.173803 -0.024280 97.956200 40.985400 -0.000006 -0.000013 9.307970 -10.568000 -55.789000 11.754300 -0.000000 0.000003 -0.005781 -0.068842 -19.378400 -2.192510 6.469440 -0.000001 174.474000 8.343250 175.698000 -39.081100 -0.002282 -0.040193 0.036496 -0.035651 42.983400 -40.985400 0.000008 0.000006 5.139650 4.435580 -69.039100 -11.754300 -0.000006 -0.000006 -0.160114 -0.574327 -40.928000
0.000000 0.000000 0.000000 0.000000 0.000000 -0.000000 -0.313377 89.938700 35.140100 91.723600 -5.943460 -8.725490 15.735700 0.000005 -0.000001 109.334000 80.614100 -110.235000 8.984550 -0.406207 -0.000000 10.039300 6.157780 -2.344610 16.377300 -0.000001 -0.000001 4.379610 -2.175160 1.429270 6.456720 -0.000001 -0.000000 -4.389740 -5.690410 -2.736980 12.994200 -0.242716 4.980390 -87.574000 -5.107690 -64.551400 5.348090 -0.000007 -0.000001 -70.440600 22.020100 17.517800 24.328600 0.000019 0.000005 -6.809390 -4.331270 -57.688200 22.291600 -0.000001 0.000005 -3.586170 5.603930 -11.579700 12.994500 -0.242716 -4.980390 90.092300 -0.221786 -67.401100 -5.348130 -0.000001 -0.000004 -37.667900 17.928500 -36.635500 -24.328900 0.000322 -0.000009 -4.759910 -1.361120 -74.072700 -22.291500 -0.000108 -0.000004 2.314430 5.585980 -10.530500 -2.192480 -6.469440 -0.000000 170.451000 -8.308990 -46.808400 39.081100 -0.000007 -0.000012 -0.043715 0.008474 79.038200 40.985400 -0.000006 -0.000013 7.361180 -10.070600 -60.605500 11.754300 -0.000000 0.000003 -0.005917 -0.070086 -19.429100 -2.192510 6.469440 -0.000001 171.435000 10.072200 -178.332000 -39.081100 -0.002282 -0.040193 0.051978 -0.072150 34.010500 -40.985400 0.000008 0.000006 3.753970 9.901470 -46.428400 -11.754300 -0.000006 -0.000006 -0.266642 -0.745791 -49.119300
0.000000 0.000000 0.000000 0.000000 0.000000 -0.000000 -0.148093 92.534600 45.344400 90.037100 -6.178650 -7.904660 15.735700 0.000005 -0.000001 112.032000 80.318300 -112.813000 8.984550 -0.406207 -0.000000 10.293000 7.198880 -2.211600 16.377300 -0.000001 -0.000001 5.181930 -2.208140 1.784890 6.456720 -0.000001 -0.000000 -4.873300 -6.560060 -2.269450 12.994200 -0.242716 4.980390 -87.020500 -6.119980 -63.978300 5.348090 -0.000007 -0.000001 -71.356300 19.967100 19.500700 24.328600 0.000019 0.000005 -5.005400 -3.089410 -58.395800 22.291600 -0.000001 0.000005 -3.773650 5.601660 -11.442000 12.994500 -0.242716 -4.980390 90.099300 -0.245286 -67.961500 -5.348130 -0.000001 -0.000004 -39.034400 19.200900 -35.538100 -24.328900 0.000322 -0.000009 -4.560200 -1.298230 -74.136100 -22.291500 -0.000108 -0.000004 1.783610 5.580590 -10.243200 -2.192480 -6.469440 -0.000000 172.589000 -9.566170 -41.839100 39.081100 -0.000007 -0.000012 0.021064 -0.014018 56.347800 40.985400 -0.000006 -0.000013 6.339530 -6.522710 -63.563900 11.754300 -0.000000 0.000003 -0.005311 -0.064452 -19.199400 -2.192510 6.469440 -0.000001 170.214000 10.641200 -172.531000 -39.081100 -0.002282 -0.040193 0.089444 -0.162877 27.872200 -40.985400 0.000008 0.000006 -5.781980 9.367410 -27.238700 -11.754300 -0.000006 -0.000006 -0.034682 -0.238173 -26.342800
0.000000 0.000000 0.000000 0.000000 0.000000 -0.000000 -0.396944 93.149800 55.757900 87.497600 -7.120580 -7.713370 15.735700 0.000005 -0.000001 115.963000 80.114600 -116.328000 8.984550 -0.406207 -0.000000 10.120800 8.592830 -1.491810 16.377300 -0.000001 -0.000001 4.827870 -1.978800 1.801950 6.456720 -0.000001 -0.000000 -4.179130 -6.950890 -1.791380 12.994200 -0.242716 4.980390 -86.808500 -6.388620 -63.383900 5.348090 -0.000007 -0.000001 -70.855600 18.242500 20.275400 24.328600 0.000019 0.000005 -3.396990 -1.954080 -60.128200 22.291600 -0.000001 0.000005 -3.405650 5.598190 -11.235500 12.994500 -0.242716 -4.980390 90.218400 -0.560870 -68.721200 -5.348130 -0.000001 -0.000004 -41.746700 20.134800 -33.213900 -24.328900 0.000322 -0.000009 -5.603410 -1.659840 -73.547700 -22.291500 -0.000108 -0.000004 2.126700 5.582750 -10.359800 -2.192480 -6.469440 -0.000000 175.614000 -12.011200 -36.184300 39.081100 -0.000007 -0.000012 0.016706 -0.025486 33.243600 40.985400 -0.000006 -0.000013 3.397560 -2.484540 -66.464000 11.754300 -0.000000 0.000003 -0.004870 -0.060215 -19.026700 -2.192510 6.469440 -0.000001 170.769000 9.709570 -169.855000 -39.081100 -0.002282 -0.040193 0.127225 -0.207581 30.837200 -40.985400 0.000008 0.000006 -7.415770 6.697160 -26.073800 -11.754300 -0.000006 -0.000006 -0.023008 -0.183414 -24.072900
0.000000 0.000000 0.000000 0.000000 0.000000 -0.000000 -0.722339 92.419300 66.492500 84.607500 -8.429160 -7.430810 15.735700 0.000005 -0.000001 119.519000 79.814300 -119.359000 8.984550 -0.406207 -0.000000 10.059000 9.976980 -0.559443 16.377300 -0.000001 -0.000001 4.122410 -1.609250 1.915800 6.456720 -0.000001 -0.000000 -3.143180 -6.837970 -1.296240 12.994200 -0.242716 4.980390 -86.858800 -6.179660 -62.987200 5.348090 -0.000007 -0.000001 -69.498600 16.339000 19.218500 24.328600 0.000019 0.000005 -2.821710 -1.542070 -61.365700 22.291600 -0.000001 0.000005 -1.898280 5.599730 -11.324400 12.994500 -0.242716 -4.980390 90.304200 -0.806115 -69.323000 -5.348130 -0.000001 -0.000004 -45.520800 21.023000 -30.358500 -24.328900 0.000322 -0.000009 -6.006700 -2.039250 -71.310000 -22.291500 -0.000108 -0.000004 2.871770 5.588210 -10.659300 -2.192480 -6.469440 -0.000000 179.240000 -14.142300 -31.562900 39.081100 -0.000007 -0.000012 -0.004628 0.015483 16.641400 40.985400 -0.000006 -0.000013 -1.075640 -2.151030 -68.145700 11.754300 -0.000000 0.000003 -0.006034 -0.071151 -19.472600 -2.192510 6.469440 -0.000001 172.810000 6.529080 -168.591000 -39.081100 -0.002282 -0.040193 0.155692 -0.193069 38.287700 -40.985400 0.000008 0.000006 -6.010950 3.490680 -30.586000 -11.754300 -0.000006 -0.000006 -0.023019 -0.183470 -24.075100
0.000000 0.000000 0.000000 0.000000 0.000000 -0.000000 -0.761757 90.829100 77.164500 83.656800 -8.540270 -6.814690 15.735700 0.000005 -0.000001 117.989000 79.662800 -117.797000 8.984550 -0.406207 -0.000000 10.583700 9.639840 -0.510780 16.377300 -0.000001 -0.000001 4.137010 -1.069570 2.142790 6.456720 -0.000001 -0.000000 -3.454590 -6.205180 -0.856168 12.994200 -0.242716 4.980390 -87.266400 -5.417930 -63.175300 5.348090 -0.000007 -0.000001 -67.677900 13.610200 16.166000 24.328600 0.000019 0.000005 -3.777730 -2.013360 -61.982300 22.291600 -0.000001 0.000005 -1.064230 5.599030 -11.284400 12.994500 -0.242716 -4.980390 90.124200 -0.333878 -69.597500 -5.348130 -0.000001 -0.000004 -48.115500 22.566500 -28.501800 -24.328900 0.000322 -0.000009 -4.987100 -2.121020 -67.005200 -22.291500 -0.000108 -0.000004 3.649440 5.597090 -11.168400 -2.192480 -6.469440 -0.000000 179.167000 -15.800100 -32.466400 39.081100 -0.000007 -0.000012 0.046283 -0.150567 17.087100 40.985400 -0.000006 -0.000013 2.488280 -7.304060 -69.948800 11.754300 -0.000000 0.000003 -0.006031 -0.071129 -19.471600 -2.192510 6.469440 -0.000001 174.066000 3.997960 -169.070000 -39.081100 -0.002282 -0.040193 0.239022 -0.205490 48.926000 -40.985400 0.000008 0.000006 -3.078150 -1.256570 -32.694600 -11.754300 -0.000006 -0.000006 -0.023776 -0.187370 -24.236200
